<?xml version="1.0" encoding="utf-8"?>
<!-- Generator: Adobe Illustrator 24.3.0, SVG Export Plug-In . SVG Version: 6.00 Build 0)  -->
<svg version="1.1" id="Ebene_1" xmlns="http://www.w3.org/2000/svg" xmlns:xlink="http://www.w3.org/1999/xlink" x="0px" y="0px"
	 viewBox="0 0 697.9 708.7" style="enable-background:new 0 0 697.9 708.7;" xml:space="preserve">
<style type="text/css">
	.st0{fill:#A2C617;}
	.st1{fill:#FFFFFF;}
	.st2{fill-rule:evenodd;clip-rule:evenodd;fill:#FFFFFF;}
</style>
<polygon class="st0" points="594.6,0 0,0 0,708.7 697.9,585.6 "/>
<path class="st1" d="M225,430.3c0.6,2.6,0.3,5.2-0.9,7.6c-1,2-2.6,3.8-4.6,4.9l0.1,0.2c1.7,0.3,3.3,1.1,4.6,2.3
	c1.4,1.4,2.4,3.3,2.6,5.2c0.5,2.5,0.4,5.1-0.3,7.5c-0.6,2-1.7,3.9-3.1,5.5c-1.4,1.5-3.1,2.8-5,3.7c-1.9,0.9-3.8,1.5-5.9,1.9l-18,3.2
	l-0.1-48.2l15.9-2.8c1.4-0.2,2.9-0.3,4.4-0.2c1.5,0.1,3,0.5,4.4,1.1c1.4,0.7,2.7,1.7,3.7,2.9C224,426.6,224.8,428.4,225,430.3z
	 M213.2,435.6c-0.1-0.8-0.5-1.5-1.2-1.9c-0.7-0.5-1.5-0.6-2.3-0.5l-2.5,0.5v6.9l2.6-0.5c1-0.2,1.8-0.6,2.6-1.3
	C213.3,438,213.6,436.8,213.2,435.6z M213.8,452.9c-0.1-0.9-0.6-1.8-1.4-2.3c-0.7-0.4-1.5-0.5-2.3-0.4l-2.7,0.5v7.5l2.6-0.5
	c1.1-0.2,2.2-0.7,3-1.5C213.8,455.3,214.1,454.1,213.8,452.9L213.8,452.9z"/>
<path class="st1" d="M245.4,463.4l-14,2.5l-0.1-48.1l14-2.5L245.4,463.4z"/>
<path class="st1" d="M275.9,422.3l-11,1.9l-0.1,5.5l10.2-1.8l0.1,11.6l-10.2,1.8v5.8l12.3-2.2l0.1,12.7l-25.5,4.5l-0.1-48.2
	l24.2-4.3V422.3z"/>
<path class="st1" d="M307.9,452.3l-26,4.6l-0.1-48.2l13.9-2.5l0.1,35l12.1-2.1V452.3z"/>
<path class="st1" d="M334.4,412l-11,2l-0.1,5.5l10.2-1.8l0.1,11.6l-10.2,1.8v5.8l12.3-2.2l0.1,12.7l-25.5,4.5l-0.1-48.2l24.2-4.2
	L334.4,412z"/>
<path class="st1" d="M364.9,407l-11,1.9l0.1,5.7l10.2-1.8v12.2l-10.1,1.8v17.3l-13.7,2.4l-0.1-48.2l24.5-4.3L364.9,407z"/>
<path class="st1" d="M393.3,401.6l-11,1.9l-0.1,5.5l10.2-1.8l0.1,11.6l-10.2,1.8v5.8l12.3-2.2l0.1,12.7l-25.5,4.5l-0.1-48.2
	l24.3-4.3V401.6z"/>
<path class="st1" d="M425.3,431.6l-26,4.6l-0.1-48.2l13.9-2.5l0.1,35l12.1-2.1V431.6z"/>
<path class="st1" d="M427.6,431.2l-0.1-48.2l13.8-2.4c2.9-0.6,5.8-0.6,8.7-0.1c2.3,0.4,4.4,1.4,6.3,2.8c1.8,1.4,3.2,3.2,4.1,5.3
	c1.1,2.3,1.9,4.8,2.3,7.3c0.3,2,0.6,4,0.7,6c0.1,2.2,0,4.4-0.3,6.6c-0.3,2.2-0.9,4.4-1.7,6.5c-0.8,2.2-2,4.1-3.5,5.9
	c-1.6,1.9-3.6,3.5-5.8,4.7c-2.6,1.4-5.5,2.4-8.5,2.8L427.6,431.2z M448.8,399.7c-0.2-1-0.4-1.9-0.7-2.8c-0.3-0.8-0.7-1.6-1.2-2.3
	c-0.5-0.6-1.1-1.2-1.8-1.5c-0.8-0.3-1.7-0.4-2.5-0.2l-1.1,0.2l0.1,23.3l1.3-0.2c1.5-0.2,2.9-1,3.8-2.3c1-1.3,1.6-2.7,2-4.3
	c0.4-1.7,0.6-3.4,0.6-5.1C449.2,402.8,449,401.2,448.8,399.7z"/>
<polygon class="st2" points="462.3,347.5 462.3,353.2 125.5,420.4 110.5,409.6 "/>
<path class="st1" d="M247.1,309l15.8-7.4v14.8l12.1-2.1l-1.9,13.2l-10.2,1.8v21.9c0,3.4,1.3,3.5,3.7,3c2.3-0.5,4.6-1.2,6.8-2.1
	l1.7,11.5c-3.9,1.9-8.1,3.3-12.4,4.1c-11.2,2-15.6-0.2-15.6-13.8V309z"/>
<path class="st1" d="M110.5,386.3l18.6-33.4l-18.6,3.3v-12.9l38.7-6.8v7l-18.8,33.8l20.2-3.6v12.9l-40.1,7.1V386.3z"/>
<path class="st1" d="M199.6,327.5l13.9-2.5l0.9,3.7h0.2c3.9-3.9,9-6.5,14.5-7.3c7.8-1.4,12.4,2,12.4,12.2v36.9l-15.8,2.8v-33.5
	c0-3.5-1.1-4.7-3.6-4.3c-2.6,0.6-4.9,2-6.7,3.9v35.7l-15.8,2.8V327.5z"/>
<path class="st1" d="M280.4,313.3l13.8-2.4l0.9,3.7h0.2c2.8-3.3,6.7-5.6,11-6.5c1.6-0.3,3.3-0.3,5-0.1l-2,14.3
	c-2-0.3-4.1-0.3-6.1,0.1c-2.8,0.5-5.3,2.1-7.1,4.4V361l-15.7,2.7V313.3z"/>
<path class="st1" d="M356.8,350.2l-13.9,2.5l-0.9-3.7h-0.2c-2.8,2.4-6.5,6-14.5,7.3c-7.8,1.4-12.4-2-12.4-12.5v-36.6l15.8-2.8v33.5
	c0,3.5,1.1,4.7,3.7,4.2c2.3-0.4,4.8-2.1,6.6-3.9v-35.7l13.9-2.5l0.9,3.7h0.2c2.8-2.5,6.8-6,13.8-7.2c4.1-0.7,8.2,0,10.3,3.8
	c4.1-4,8.9-7.2,15.2-8.3c7.7-1.4,12.3,2.1,12.3,12.2v36.9l-15.8,2.8v-33.9c0-3.1-1-4.3-3.5-3.9c-2.4,0.7-4.7,2-6.4,3.8v35.7
	l-15.2,2.7v-33.9c0-3.1-0.8-4.4-3.7-3.9c-2,0.4-4.4,2.1-6.2,3.8L356.8,350.2z"/>
<path class="st1" d="M174.8,330.7c14.4-2.5,20,2.6,20,15.4c-0.1,3.7-0.4,7.5-1,11.2l-25.1,4.5c0.1,7.5,1.8,10.3,8.3,9.1
	c4.5-0.8,8.1-2.3,14.2-5.1l2.4,10.3c-5.8,3.6-12.3,6-19,7.2c-17.4,3.1-21.5-4.5-21.5-21.7C153,346,156,334,174.8,330.7z
	 M179.1,349.5c0.3-1.4,0.4-2.8,0.3-4.1c-0.3-3.4-2.4-3.9-4.6-3.5c-3.1,0.5-5.5,2.2-5.9,9.4L179.1,349.5z"/>
<polygon class="st2" points="406,174.7 394.1,174.7 383.9,200.3 373.7,174.7 361.8,174.7 379.5,216.8 388,216.8 "/>
<path class="st1" d="M357.2,216.8l-2.7-7.3h-15.1l-2.9,7.3h-11.6l16.2-42.1h11.9l15.8,42.1L357.2,216.8z M347,187.7l-4.5,13.4h9.1
	l-4.5-13.4H347z"/>
<path class="st1" d="M303.8,216.8h-15.5v-42.1h15.5c11.6,0,21,9.4,21,21S315.4,216.8,303.8,216.8L303.8,216.8z M301.8,184h-2.6v23.5
	h2.5c6.5,0,12.1-3.6,12.1-11.8C313.8,188.2,308.8,184,301.8,184L301.8,184z"/>
<path class="st1" d="M541.5,275.7c-1.4,4.2-16.7,3.4-24.4,2s-20.3-6.2-20.3-6.2s4.4,8,8.5,12.5c3.6,3.9,18,16,16,19.8
	c-1.8,3.4-19-0.9-26.3-6c-4.9-3.5-9.5-7.5-13.5-12c0,0,0.9,10.6,0.6,15.3s-1.1,14.3-4.5,15c-2.8,0.5-8.3-6.8-10.2-12.5
	c-1.3-4.5-2.4-9.1-3.1-13.8c0,0-5.5,10.1-8.4,17.2c-2.9,7-11.1,29.3-15.2,28.7c-4.1-0.6-5.3-18.7-3.5-31c0.9-7.1,3.2-13.9,6.7-20.1
	c0,0-10.6,6.2-14,8.1c-3.4,1.9-8.7,3.9-11.7,2.9c-3-1,3.8-11.8,6.3-14.8s7.2-8.4,7.2-8.4s-13.4,4.3-20,5.6c-5.2,1-18.7,1.8-19.8-0.8
	c-1-2.6,11.8-12.3,16.6-15.8s16-9.3,16-9.3c-8-0.6-15.9-2.5-23.2-5.8c-8.1-3.7-20.4-14-18.6-18.8c1.6-4.2,17,1.8,25.9,3.2
	c6.7,1,13.4,1.5,20.2,1.7c-2.4-2.1-4.6-4.4-6.5-6.8c-3.6-4.5-8.8-14.8-6.6-16.6c2.9-2.3,9.5,3.2,14.1,5.4c3.8,1.8,7.7,3.1,11.8,4
	c0,0-5.2-13.2-7.2-21.9s-4.5-27.7,1-28.5c4.1-0.5,11.9,15.8,15,22.4s11.1,20.5,11.1,20.5c5.4-11.2,4.8-11.9,10.8-20.1
	s18.9-24.1,23.4-21.9c3.3,1.6-3.1,17.4-5.7,25.7s-7.3,23.2-7.3,23.2s8.6-8.6,12.1-12.2s9.5-11.4,13-10.9s-0.5,13.6-2.6,20.2
	s-6.9,17-6.9,17c6.5,0.4,13.1,0.4,19.6-0.1c9.5-0.8,22.4-4.7,24.4-2.2c2.9,3.7-7.4,12.6-16.5,16.8c-7.2,3.3-23.8,5.6-23.8,5.6
	c4.5,3.4,9.3,6.4,14.2,9C522.9,264,542.5,272.8,541.5,275.7z M453.7,230.4c1.9,0.7,5.9,0.3,9-2.7c2-2,2-5.2,0-7.2
	c-0.4-0.5-1-0.8-1.6-1.1c-3.6-1.4-7.7-0.2-10.1,2.9C449.7,224.2,449.8,228.9,453.7,230.4L453.7,230.4z M435.2,243.5
	c1.9,2.4,6.8,1.4,9.2-1c2.8-2.9,2.2-7.5,0.1-9.9c-2.1-2.5-6.5-1.7-8.8,1C434.2,235.4,432.7,240.4,435.2,243.5z M445.4,256.3
	c-2.5-2.6-7.3-4.1-10.1-1.5c-2.6,2.4-2.5,7.8-0.3,10.9c2.5,3.5,7.6,5.7,11.5,2.3C450.9,264.1,447.5,258.4,445.4,256.3z M468.2,256.3
	c5.8-4.3,7-12.4,2.8-18.2c-4.2-5.4-12.3-5.6-17.8-1.5c-5.5,4.2-6.8,12-2.9,17.7C454.3,260.3,462.4,260.5,468.2,256.3L468.2,256.3z
	 M475,267.9c-2.6-4.8-8.4-5.5-14-3.1c-4.7,2-6.3,6.4-4.8,9.9c1.5,3.5,5.7,5.9,12.5,4.4C473.8,278,478,273.2,475,267.9L475,267.9z
	 M485.4,233.6c1.5-2.1,1-5.6-0.1-7.7c-1.9-3.6-6.2-5.1-9.9-3.5c-3.8,1.4-6,8.4-0.3,12.7C478.4,237.5,483,236.8,485.4,233.6
	C485.4,233.6,485.4,233.5,485.4,233.6L485.4,233.6z M488.5,244.9c-4.3-1.8-8,1.3-9.9,6c-1.6,4,0,8.5,3.8,10.6
	c3.5,1.9,8,1.2,10.2-4.8C494,252.6,493.2,246.9,488.5,244.9L488.5,244.9z"/>
<path class="st1" d="M247.1,237.5l15.8-7.3v66.9l-15.8,2.8V237.5z"/>
<path class="st1" d="M290.1,293.2c-1.8,0.4-3.6,0.4-5.4,0l-0.4,0.1c0,0,0.3,3.2,0.3,8.4v4.5l-15.8,2.8v-63.3l13.9-2.5l0.9,3.9h0.2
	c2-2.1,5.4-5.8,11.5-6.9c8.6-1.5,14.1,2.2,14.1,21C309.5,283.7,302.2,291,290.1,293.2z M284.6,280.3c0.8,0.4,1.7,0.6,2.6,0.4
	c4-0.7,6.5-2.1,6.5-15.1c0-11-1.9-12.1-4.6-11.6c-2,0.3-3.5,2.3-4.5,3.5V280.3z"/>
<path class="st1" d="M337.1,233.6l13.9-2.4l0.9,3.7h0.2c1.9-2.1,5.8-5.8,13.8-7.2c7.8-1.4,12.4,2,12.4,12.2v36.8l-15.8,2.8V246
	c0-3.5-1.1-4.7-3.7-4.3c-2.4,0.5-4.5,1.9-6,3.8v35.7l-15.8,2.8V233.6z"/>
<path class="st1" d="M213.5,254.5c7.4-1.4,15.1-1.2,22.5,0.4v29.4c0,5.6,1.3,5.9,5.4,4.4l1.8,10.7c-3.2,1.5-6.5,2.7-10,3.4
	c-2.8,0.5-7.5,1.4-10.2-2.8l-0.4,0.1c-3.8,3.4-7.9,6.4-14.1,7.5c-9.3,1.6-14.8-2.1-14.8-20.9C193.6,264.1,200.5,256.8,213.5,254.5z
	 M209.4,282.1c0,11,1.9,12.1,4.6,11.6c2.4-0.6,4.6-1.9,6.2-3.8v-22.8c-1.5-0.3-3-0.4-4.4-0.1C212.2,267.6,209.4,269.1,209.4,282.1z"
	/>
<path class="st1" d="M314.6,225.3l15.8-2.8v12.3l-15.8,2.8V225.3z M314.6,243.2l15.8-2.8v44.7l-15.8,2.8V243.2z"/>
</svg>
