<svg xmlns="http://www.w3.org/2000/svg" xmlns:xlink="http://www.w3.org/1999/xlink" xmlns:inkscape="http://www.inkscape.org/namespaces/inkscape" version="1.1" width="701.80197" height="154.48828" viewBox="0 0 701.80197 154.48828">
<defs>
<clipPath id="clip_1">
<path transform="matrix(1,0,0,-1,-60.564,396.1865)" d="M60.564 241.69821H762.36599V396.1865H60.564Z" clip-rule="evenodd"/>
</clipPath>
<clipPath id="clip_2">
<path transform="matrix(1,0,0,-1,-60.564,396.1865)" d="M0 595.28H841.89V0H0Z"/>
</clipPath>
</defs>
<g clip-path="url(#clip_1)">
<g inkscape:groupmode="layer" inkscape:label="Ebene 1">
<g clip-path="url(#clip_2)">
<path transform="matrix(1,0,0,-1,95.4633,25.271485)" d="M0 0C4.706-1.678 10.692 .535 12.943 5.174L15.676 5.018 13.703 12.201 13.701 12.199C13.608 12.587 13.49 12.965 13.354 13.338 10.842 14.184 8.08 14.874 5.299 15.324 2.491 15.783-.255 16.016-2.863 16.016-3.353 16.016-3.835 16.008-4.307 15.992H-4.323C-4.906 15.213-5.393 14.353-5.744 13.422-8.594 7.505-4.4 1.572 0 0" fill="#939598" fill-rule="evenodd"/>
<path transform="matrix(1,0,0,-1,101.0117,8.414001)" d="M0 0C3.087-.502 6.186-1.282 8.961-2.266L15.084-2.456C14.292-.535 10.861-.158 9.494-.088 8.23 4.608 4.769 8.08 .472 8.392 .265 8.406 .058 8.414-.148 8.414-4.396 8.414-8.179 5.266-9.911 .684-9.42 .7-8.919 .709-8.412 .709-5.774 .709-2.917 .475 0 0" fill="#939598" fill-rule="evenodd"/>
<path transform="matrix(1,0,0,-1,64.9223,62.76758)" d="M0 0C-2.305 .582-6.19 1.566-8.576 2.172-9.094 2.305-9.649 2.202-10.091 1.892-10.532 1.594-10.822 1.103-10.879 .572-11.25-2.817-11.957-9.313-12.224-11.756-12.294-12.391-12.521-12.991-12.89-13.502-14.458-15.711-18.978-22.077-21.892-26.18-22.572-27.146-22.84-28.342-22.62-29.502-22.404-30.659-21.726-31.68-20.741-32.334-20.727-32.34-20.708-32.35-20.694-32.365-18.817-33.601-16.307-33.204-14.9-31.449-11.524-27.234-5.682-19.936-3.711-17.475-3.27-16.923-2.94-16.298-2.73-15.616-1.92-12.959 .276-5.771 1.32-2.345 1.469-1.861 1.411-1.335 1.163-.891 .913-.451 .492-.129 0 0" fill="#939598" fill-rule="evenodd"/>
<path transform="matrix(1,0,0,-1,50.074705,43.310487)" d="M0 0C-1.459 3.07 2.341 9.365 4.3 11.766 5.95 13.791 10.333 18.556 14.497 22.353 17.747 25.314 22.51 27.385 26.081 27.385 26.929 27.385 27.692 27.271 28.353 27.045 30.483 26.32 33.316 22.656 35.339 19.42 31.697 19.054 27.387 16.74 27.19 16.633L26.942 16.5 26.757 16.289 16.611 4.611 14.298 1.949 17.823 2.043 17.979 2.046C21.093 2.045 26.509-.229 29.765-1.792L27.006-4.656C24.789-3.816 19.203-2.023 11.951-2.023 10.769-2.023 9.579-2.074 8.412-2.169 7.631-2.234 6.887-2.268 6.202-2.268 3.863-2.268 .889-1.874 0 0M67.71 8.139C67.708 8.139 67.708 8.139 67.708 8.146 67.17 10.398 64.986 11.867 62.693 11.505 59.728 11.045 55.869 10.438 53.751 10.111 52.76 9.957 51.744 10.207 50.94 10.816 48.639 12.552 43.8 16.209 41.775 17.734 41.167 18.192 40.472 18.518 39.729 18.699 39.09 18.855 38.203 19.072 37.208 19.314 35.512 22.16 32.02 27.437 28.852 28.514 28.007 28.802 27.071 28.936 26.081 28.936 21.944 28.936 16.861 26.605 13.452 23.5 9.229 19.649 4.829 14.87 3.097 12.745 1.444 10.719-8.855-3.818 6.202-3.818 6.323-3.818 6.455-3.812 6.58-3.812 6.267-4.223 5.938-4.653 5.637-5.051 4.123-7.045 3.713-9.67 4.549-12.023 5.381-14.388 7.347-16.166 9.777-16.768 12.156-17.354 14.333-17.891 15.597-18.203 16.354-18.391 17.134-18.453 17.909-18.402 21.054-18.173 29.681-17.557 33.204-17.301 34.09-17.236 34.898-17.814 35.13-18.673 36.156-22.45 38.79-32.174 38.79-32.174L47.889-30.932C47.889-30.932 47.411-18.33 47.13-10.92 47.018-7.971 44.622-5.617 41.667-5.558 36.233-5.453 28.543-5.299 28.543-5.299 28.543-5.299 33.497-.627 36.281 2.004 37.396 3.051 39.037 3.316 40.421 2.656 42.557 1.65 45.697 .164 47.713-.791 48.961-1.379 50.391-1.488 51.713-1.084 54.802-.152 60.704 1.639 64.668 2.843 66.923 3.52 68.258 5.847 67.71 8.139" fill="#939598" fill-rule="evenodd"/>
<path transform="matrix(1,0,0,-1,305.7041,151.36029)" d="M0 0-52.526 62.473-69.879 72.694-91.048 81.563C-91.048 81.563-101.081 97.212-102.295 98.431-103.51 99.646-110.142 113.839-111.187 113.49-112.222 113.146-128.188 121.127-128.188 121.127L-137.267 133.399-153.075 149.21V137.544L-108.445 73.496-75.473 51.263-56.326 16.731-27.185-3.128Z" fill="#d2232a"/>
<path transform="matrix(1,0,0,-1,0,150.9238)" d="M0 0 52.372 62.293 69.675 72.484 90.786 81.324C90.786 81.324 100.787 96.932 102 98.144 103.21 99.355 109.819 113.51 110.858 113.161 111.897 112.817 127.815 120.773 127.815 120.773L136.868 133.012 152.628 148.773V137.148L108.13 73.285 75.253 51.115 56.164 16.687 27.109-3.113Z" fill="#d2232a"/>
<path transform="matrix(1,0,0,-1,351.6958,134.57318)" d="M0 0-3.907-8.507H3.881ZM8.774-15.978H7.312L4.44-9.703H-4.412L-7.284-15.978H-8.746L-.425 2.286H.398Z" fill="#939598"/>
<path transform="matrix(1,0,0,-1,363.7788,133.58979)" d="M0 0V-7.072H1.941C4.015-7.072 5.025-6.965 6.009-6.486 6.992-6.008 7.657-4.758 7.657-3.509 7.657-2.26 6.992-1.09 5.981-.584 5.396-.292 4.547 0 2.286 0ZM2.181 1.17C4.28 1.17 5.344 1.09 6.514 .639 7.949 .054 9.252-1.462 9.252-3.509 9.252-5.716 7.976-7.125 5.796-7.922 6.833-8.586 7.312-9.305 11.485-15.711L12.336-16.961H10.661L7.178-11.484C6.62-10.607 5.663-9.33 4.945-8.826 4.147-8.268 3.271-8.268 1.941-8.268H0V-16.961H-1.409V1.17Z" fill="#939598"/>
<path transform="matrix(1,0,0,-1,379.2465,141.99019)" d="M0 0V-7.391H3.137C4.493-7.391 8.454-7.391 8.454-3.695 8.454-2.791 8.188-1.887 7.338-1.143 6.407-.293 5.237 0 2.499 0ZM0 8.375V1.17H1.701C3.19 1.17 6.885 1.17 6.885 4.785 6.885 5.98 6.354 7.098 5.477 7.629 4.759 8.055 3.748 8.375 1.355 8.375ZM1.409 9.57C3.509 9.57 4.6 9.49 5.741 8.985 7.363 8.32 8.401 6.699 8.401 4.892 8.401 2.26 6.486 1.25 5.796 .851 9.198 .133 9.996-1.994 9.996-3.723 9.996-5.504 9.145-6.727 8.215-7.338 6.566-8.4 5.424-8.561 3.323-8.561H-1.409V9.57Z" fill="#939598"/>
<path transform="matrix(1,0,0,-1,401.8042,133.58979)" d="M0 0H-8.48V-7.23H-.213V-8.4H-8.48V-15.818H.213V-16.961H-9.89V1.17H0Z" fill="#939598"/>
<path transform="matrix(1,0,0,-1,-60.564,396.1865)" d="M466.526 245.636H465.09V263.767H466.526Z" fill="#939598"/>
<path transform="matrix(1,0,0,-1,422.8276,133.58979)" d="M0 0H-6.779V-16.961H-8.215V0H-15.021V1.17H0Z" fill="#939598"/>
<path transform="matrix(1,0,0,-1,433.0581,134.8652)" d="M0 0C-1.462 .851-2.579 1.436-4.095 1.436-6.7 1.436-7.922-.505-7.922-2.048-7.922-4.359-5.875-5.078-3.882-5.77-1.728-6.541 .744-7.736 .744-10.927 .744-14.117-1.994-15.925-4.519-15.925-6.194-15.925-7.79-15.261-9.172-14.33V-12.682C-7.604-13.798-6.247-14.596-4.572-14.596-1.967-14.596-.718-12.629-.718-10.98-.718-8.534-3.005-7.604-4.439-7.125-6.832-6.302-7.312-5.902-7.71-5.557-8.667-4.732-9.358-3.536-9.358-2.101-9.358 .318-7.312 2.686-4.227 2.686-2.738 2.686-1.303 2.26 0 1.541Z" fill="#939598"/>
<path transform="matrix(1,0,0,-1,444.8032,134.8652)" d="M0 0C-1.462 .851-2.579 1.436-4.095 1.436-6.7 1.436-7.922-.505-7.922-2.048-7.922-4.359-5.875-5.078-3.882-5.77-1.729-6.541 .744-7.736 .744-10.927 .744-14.117-1.994-15.925-4.52-15.925-6.194-15.925-7.79-15.261-9.172-14.33V-12.682C-7.604-13.798-6.247-14.596-4.572-14.596-1.967-14.596-.718-12.629-.718-10.98-.718-8.534-3.005-7.604-4.439-7.125-6.832-6.302-7.312-5.902-7.71-5.557-8.667-4.732-9.357-3.536-9.357-2.101-9.357 .318-7.312 2.686-4.228 2.686-2.738 2.686-1.303 2.26 0 1.541Z" fill="#939598"/>
<path transform="matrix(1,0,0,-1,462.9174,135.23828)" d="M0 0C-1.407 .719-3.403 1.729-6.167 1.729-11.006 1.729-14.302-1.621-14.302-6.247-14.302-10.953-10.899-14.195-6.246-14.195-3.322-14.195-.877-12.92 .187-12.388V-13.85C-2.764-15.419-5.29-15.552-6.246-15.552-11.218-15.552-15.896-12.096-15.896-6.273-15.896-.079-10.634 3.059-6.433 3.059-4.2 3.059-2.02 2.473 0 1.543Z" fill="#939598"/>
<path transform="matrix(1,0,0,-1,480.4672,150.5508)" d="M0 0H-1.409V8.587H-13.532V0H-14.915V18.131H-13.532V9.783H-1.409V18.131H0Z" fill="#939598"/>
<path transform="matrix(1,0,0,-1,499.36369,141.56439)" d="M0 0C0-2.58-.159-4.228-1.275-5.956-2.339-7.631-4.412-9.226-7.497-9.226-9.81-9.226-12.521-8.295-13.823-6.008-15.126-3.775-15.153-2.234-15.153 0V9.145H-13.771V-.266C-13.771-2.766-13.345-4.095-12.787-5.052-11.936-6.514-10.262-7.923-7.604-7.923-5.477-7.923-3.296-6.939-2.393-5.105-1.567-3.51-1.382-2.074-1.382-.266V9.145H0Z" fill="#939598"/>
<path transform="matrix(1,0,0,-1,516.08438,133.58979)" d="M0 0H-6.78V-16.961H-8.215V0H-15.021V1.17H0Z" fill="#939598"/>
<path transform="matrix(1,0,0,-1,532.66348,132.8984)" d="M0 0-13.586-16.51H.104V-17.652H-15.898V-17.254L-2.288-.664H-15.287V.479H0Z" fill="#939598"/>
<path transform="matrix(1,0,0,-1,549.9438,136.61908)" d="M0 0C0 1.249-.958 2.578-2.738 2.578-4.44 2.578-5.609 1.355-5.609-.027-5.609-.771-5.264-1.996-3.403-3.723-.692-2.605 0-1.092 0 0M-3.775-5.318C-5.184-5.93-7.657-7.1-7.657-9.572-7.657-11.354-6.381-12.895-4.094-12.895-2.605-12.895-.931-12.23 .824-10.104ZM6.3-13.932H4.519L1.781-11.087C.984-11.965-1.01-14.171-4.254-14.171-7.046-14.171-9.198-12.256-9.198-9.863-9.198-8.561-8.641-6.036-4.706-4.334-6.009-2.846-6.966-1.782-6.966-.107-6.966 1.912-5.29 3.854-2.659 3.854-.187 3.854 1.303 2.072 1.303 .105 1.303-2.793-1.489-4.201-2.499-4.706L1.621-8.987C2.02-8.429 2.845-7.205 3.615-4.893H5.104C4.492-6.701 3.722-8.455 2.604-10.023Z" fill="#939598"/>
<path transform="matrix(1,0,0,-1,566.58639,141.99019)" d="M0 0V-7.391H3.137C4.493-7.391 8.454-7.391 8.454-3.695 8.454-2.791 8.188-1.887 7.337-1.143 6.407-.293 5.237 0 2.499 0ZM0 8.375V1.17H1.701C3.19 1.17 6.886 1.17 6.886 4.785 6.886 5.98 6.354 7.098 5.477 7.629 4.758 8.055 3.748 8.375 1.355 8.375ZM1.409 9.57C3.51 9.57 4.6 9.49 5.742 8.985 7.364 8.32 8.4 6.699 8.4 4.892 8.4 2.26 6.487 1.25 5.796 .851 9.199 .133 9.996-1.994 9.996-3.723 9.996-5.504 9.146-6.727 8.215-7.338 6.566-8.4 5.424-8.561 3.323-8.561H-1.408V9.57Z" fill="#939598"/>
<path transform="matrix(1,0,0,-1,589.144,133.58979)" d="M0 0H-8.481V-7.23H-.213V-8.4H-8.481V-15.818H.213V-16.961H-9.89V1.17H0Z" fill="#939598"/>
<path transform="matrix(1,0,0,-1,593.21627,133.58979)" d="M0 0V-7.072H1.941C4.015-7.072 5.024-6.965 6.008-6.486 6.992-6.008 7.657-4.758 7.657-3.509 7.657-2.26 6.992-1.09 5.982-.584 5.397-.292 4.546 0 2.287 0ZM2.181 1.17C4.281 1.17 5.345 1.09 6.514 .639 7.949 .054 9.252-1.462 9.252-3.509 9.252-5.716 7.977-7.125 5.796-7.922 6.833-8.586 7.311-9.305 11.484-15.711L12.336-16.961H10.661L7.179-11.484C6.62-10.607 5.663-9.33 4.945-8.826 4.147-8.268 3.271-8.268 1.941-8.268H0V-16.961H-1.408V1.17Z" fill="#939598"/>
<path transform="matrix(1,0,0,-1,621.4126,135.31739)" d="M0 0C-1.939 1.223-4.2 1.808-6.486 1.808-10.447 1.808-14.383-1.091-14.383-6.194-14.383-11.165-10.447-14.196-6.539-14.196-4.652-14.196-2.818-13.745-1.063-13.054V-8.161H-4.892V-6.966H.346V-13.931C-1.808-14.914-4.146-15.473-6.486-15.473-11.165-15.473-15.95-11.831-15.95-6.114-15.95-.931-11.963 3.138-6.221 3.138-3.482 3.138-1.462 2.233 0 1.595Z" fill="#939598"/>
<path transform="matrix(1,0,0,-1,633.33639,134.8652)" d="M0 0C-1.463 .851-2.578 1.436-4.094 1.436-6.699 1.436-7.923-.505-7.923-2.048-7.923-4.359-5.875-5.078-3.881-5.77-1.728-6.541 .744-7.736 .744-10.927 .744-14.117-1.993-15.925-4.52-15.925-6.194-15.925-7.789-15.261-9.172-14.33V-12.682C-7.604-13.798-6.247-14.596-4.572-14.596-1.968-14.596-.718-12.629-.718-10.98-.718-8.534-3.004-7.604-4.439-7.125-6.832-6.302-7.311-5.902-7.71-5.557-8.666-4.732-9.357-3.536-9.357-2.101-9.357 .318-7.311 2.686-4.228 2.686-2.738 2.686-1.303 2.26 0 1.541Z" fill="#939598"/>
<path transform="matrix(1,0,0,-1,638.0874,133.5625)" d="M0 0V-7.338H2.552C4.333-7.338 5.529-7.231 6.619-6.541 7.443-6.008 7.922-4.785 7.922-3.669 7.922-2.553 7.443-1.436 6.594-.824 5.822-.293 4.892 0 2.339 0ZM2.286 1.143C4.838 1.143 5.955 1.09 7.23 .372 8.613-.398 9.491-1.781 9.491-3.615 9.491-5.503 8.507-7.1 7.151-7.763 5.609-8.48 4.493-8.508 2.472-8.508H0V-16.988H-1.384V1.143Z" fill="#939598"/>
<path transform="matrix(1,0,0,-1,658.4731,133.5361)" d="M0 0C-4.627 0-8.055-3.536-8.055-7.976-8.055-12.256-4.732-15.925-.079-15.925 4.094-15.925 8.002-12.814 8.002-7.87 8.002-3.723 4.732 0 0 0M-.053-17.254C-5.477-17.254-9.65-13.134-9.65-7.923-9.65-3.005-5.849 1.356-.027 1.356 5.741 1.356 9.57-2.978 9.57-7.87 9.57-13.319 5.211-17.254-.053-17.254" fill="#939598"/>
<path transform="matrix(1,0,0,-1,672.41159,133.58979)" d="M0 0V-7.072H1.942C4.015-7.072 5.025-6.965 6.009-6.486 6.992-6.008 7.656-4.758 7.656-3.509 7.656-2.26 6.992-1.09 5.982-.584 5.397-.292 4.547 0 2.287 0ZM2.181 1.17C4.28 1.17 5.344 1.09 6.514 .639 7.949 .054 9.252-1.462 9.252-3.509 9.252-5.716 7.976-7.125 5.797-7.922 6.834-8.586 7.312-9.305 11.485-15.711L12.336-16.961H10.661L7.179-11.484C6.62-10.607 5.663-9.33 4.945-8.826 4.147-8.268 3.271-8.268 1.942-8.268H0V-16.961H-1.409V1.17Z" fill="#939598"/>
<path transform="matrix(1,0,0,-1,698.2212,133.58979)" d="M0 0H-6.779V-16.961H-8.215V0H-15.021V1.17H0Z" fill="#939598"/>
<path transform="matrix(1,0,0,-1,147.89351,120.375)" d="M0 0H-3.852L-10.195 14.217-16.766 0H-20.617L-32.398 26.621H-24.016L-18.521 12.744-12.688 26.621H-7.76L-1.982 12.744 3.625 26.621H11.951Z" fill="#939598"/>
<path transform="matrix(1,0,0,-1,193.8076,120.375)" d="M0 0H-3.852L-10.195 14.217-16.766 0H-20.617L-32.398 26.621H-24.016L-18.521 12.744-12.688 26.621H-7.76L-1.982 12.744 3.625 26.621H11.951Z" fill="#939598"/>
<path transform="matrix(1,0,0,-1,239.72162,120.375)" d="M0 0H-3.852L-10.195 14.217-16.766 0H-20.617L-32.398 26.621H-24.016L-18.521 12.744-12.688 26.621H-7.76L-1.982 12.744 3.625 26.621H11.951Z" fill="#939598"/>
<path transform="matrix(1,0,0,-1,255.3779,120.375)" d="M0 0C-2.719 0-4.984 2.322-4.984 4.928-4.984 7.533-2.832 9.855-.057 9.855 2.889 9.855 4.871 7.533 4.871 4.984 4.871 2.605 3.002 0 0 0" fill="#939598"/>
<path transform="matrix(1,0,0,-1,274.1435,106.66791)" d="M0 0 10.309 12.914H19.881L9.686 0 20.334-13.197H10.309L0-.34V-13.197H-8.27V25.431H0Z" fill="#939598"/>
<path transform="matrix(1,0,0,-1,-60.564,396.1865)" d="M366.489 276.321H358.21903V314.949H366.489Z" fill="#939598"/>
<path transform="matrix(1,0,0,-1,330.8696,103.83591)" d="M0 0C-.227 2.322-1.756 5.607-5.664 5.607-9.686 5.607-11.158 2.266-11.328 0ZM6.797-13.084C1.982-16.482-3.229-16.539-5.098-16.539-16.652-16.539-19.994-8.609-19.994-3.002-19.994 5.38-13.48 10.591-6.174 10.591-.736 10.591 7.42 7.363 7.25-4.305H-11.498C-11.158-9.063-7.93-11.441-2.832-11.441 1.869-11.441 4.248-9.686 6.797-7.816Z" fill="#939598"/>
<path transform="matrix(1,0,0,-1,361.4624,99.418399)" d="M0 0H-9.402V-5.72C-9.402-9.798-9.402-10.705-9.176-12.064-8.723-14.669-6.344-14.896-5.494-14.896-3.285-14.896-1.756-14.216 0-13.367V-19.314C-1.473-19.88-3.965-20.957-7.646-20.957-10.932-20.957-14.217-19.71-16.143-17.048-17.389-15.292-17.729-13.367-17.729-9.458V0H-21.467V1.529L-10.535 13.877H-9.402V5.664H0Z" fill="#939598"/>
<path transform="matrix(1,0,0,-1,385.2124,99.418399)" d="M0 0H-9.402V-5.72C-9.402-9.798-9.402-10.705-9.176-12.064-8.723-14.669-6.344-14.896-5.494-14.896-3.285-14.896-1.756-14.216 0-13.367V-19.314C-1.473-19.88-3.965-20.957-7.646-20.957-10.932-20.957-14.217-19.71-16.143-17.048-17.389-15.292-17.729-13.367-17.729-9.458V0H-21.467V1.529L-10.535 13.877H-9.402V5.664H0Z" fill="#939598"/>
<path transform="matrix(1,0,0,-1,407.9712,103.83591)" d="M0 0C-.227 2.322-1.756 5.607-5.664 5.607-9.686 5.607-11.158 2.266-11.328 0ZM6.797-13.084C1.982-16.482-3.229-16.539-5.098-16.539-16.652-16.539-19.994-8.609-19.994-3.002-19.994 5.38-13.48 10.591-6.174 10.591-.736 10.591 7.42 7.363 7.25-4.305H-11.498C-11.158-9.063-7.93-11.441-2.832-11.441 1.869-11.441 4.248-9.686 6.797-7.816Z" fill="#939598"/>
<path transform="matrix(1,0,0,-1,428.8042,101.23041)" d="M0 0C2.775 5.833 5.494 7.986 8.439 7.986 10.365 7.986 11.951 7.023 13.877 5.607L11.611-1.643C10.762-1.076 8.893 .283 6.797 .283 3.738 .283 2.152-2.266 .68-5.437 .566-5.721 .113-7.137 0-7.363V-18.635H-8.213V7.476H0Z" fill="#939598"/>
<path transform="matrix(1,0,0,-1,-60.564,396.1865)" d="M514.506 276.321H506.236V314.949H514.506Z" fill="#939598"/>
<path transform="matrix(1,0,0,-1,474.4008,107.234409)" d="M0 0C-.566-.227-3.512-1.359-4.135-1.643-4.871-1.982-7.193-3.115-7.193-5.437-7.193-7.25-5.721-8.213-4.588-8.213-4.361-8.213-2.096-8.213 0-6.287ZM12.744-10.762C10.818-11.951 7.533-13.141 5.041-13.141 1.189-13.141 .68-11.271 .396-10.252-1.529-11.498-4.191-13.141-8.213-13.141-12.121-13.141-15.52-10.479-15.52-6.287-15.52-1.076-10.195 .793-8.27 1.473-6.967 1.926-1.189 3.795 0 4.135 0 5.494 .057 8.552-4.475 8.552-9.572 8.552-13.367 5.041-14.16 4.135V10.818C-10.365 13.197-6.4 13.99-2.775 13.99-1.473 13.99 5.154 13.933 7.477 9.742 7.873 9.062 8.27 8.156 8.27 4.984V-5.324C8.27-6.23 8.27-7.42 9.572-7.42 10.422-7.42 11.271-6.967 12.744-6.174Z" fill="#939598"/>
<path transform="matrix(1,0,0,-1,508.57273,100.26758)" d="M0 0C-.283 .227-2.266 1.529-4.588 1.529-6.4 1.529-7.93 .792-9.006-.283-9.912-1.246-10.988-2.719-10.988-6.627-10.988-13.82-6.117-14.33-4.814-14.33-2.379-14.33-.906-13.141 0-12.461ZM8.156-19.598H0V-17.502C-1.02-18.295-3.285-20.107-7.25-20.107-12.857-20.107-19.428-15.803-19.428-6.514-19.428 2.152-13.594 7.023-6.797 7.023-5.098 7.023-2.662 6.74 0 5.38V19.031H8.156Z" fill="#939598"/>
<path transform="matrix(1,0,0,-1,541.60098,103.83591)" d="M0 0C-.227 2.322-1.756 5.607-5.664 5.607-9.686 5.607-11.158 2.266-11.328 0ZM6.797-13.084C1.982-16.482-3.229-16.539-5.098-16.539-16.652-16.539-19.994-8.609-19.994-3.002-19.994 5.38-13.48 10.591-6.174 10.591-.736 10.591 7.42 7.363 7.25-4.305H-11.498C-11.158-9.063-7.93-11.441-2.832-11.441 1.869-11.441 4.248-9.686 6.797-7.816Z" fill="#939598"/>
<path transform="matrix(1,0,0,-1,562.43399,97.49271)" d="M0 0C2.209 2.549 4.701 4.248 8.496 4.248 13.311 4.248 15.916 1.473 17.049-.85 18.012-2.775 18.068-4.644 18.068-6.966V-22.373H9.799V-7.646C9.799-6.003 9.799-4.871 9.402-3.908 8.836-2.322 7.363-1.473 5.721-1.473 2.436-1.473 .34-4.984 0-5.55V-22.373H-8.213V3.738H0Z" fill="#939598"/>
<path transform="matrix(1,0,0,-1,591.11758,120.375)" d="M0 0C-2.719 0-4.984 2.322-4.984 4.928-4.984 7.533-2.832 9.855-.057 9.855 2.889 9.855 4.871 7.533 4.871 4.984 4.871 2.605 3.002 0 0 0" fill="#939598"/>
<path transform="matrix(1,0,0,-1,609.7983,97.49271)" d="M0 0C2.209 2.549 4.701 4.248 8.496 4.248 13.311 4.248 15.916 1.473 17.049-.85 18.012-2.775 18.068-4.644 18.068-6.966V-22.373H9.799V-7.646C9.799-6.003 9.799-4.871 9.402-3.908 8.836-2.322 7.363-1.473 5.721-1.473 2.436-1.473 .34-4.984 0-5.55V-22.373H-8.213V3.738H0Z" fill="#939598"/>
<path transform="matrix(1,0,0,-1,642.4184,101.23041)" d="M0 0C2.775 5.833 5.494 7.986 8.439 7.986 10.365 7.986 11.951 7.023 13.877 5.607L11.611-1.643C10.762-1.076 8.893 .283 6.797 .283 3.738 .283 2.152-2.266 .68-5.437 .566-5.721 .113-7.137 0-7.363V-18.635H-8.213V7.476H0Z" fill="#939598"/>
<path transform="matrix(1,0,0,-1,689.85098,120.375)" d="M0 0H-3.852L-10.195 14.217-16.766 0H-20.617L-32.398 26.621H-24.016L-18.521 12.744-12.688 26.621H-7.76L-1.982 12.744 3.625 26.621H11.951Z" fill="#939598"/>
</g>
</g>
</g>
</svg>
