<svg id="Ebene_1" data-name="Ebene 1" xmlns="http://www.w3.org/2000/svg" viewBox="0 0 1200 489.32"><defs><style>.cls-1{fill:#fff;}</style></defs><path class="cls-1" d="M1153,112.29c19.47-2.49,24.73-23.41,23.6-33.85l-56.44,7.23c4.3-22.14,7.58-37.76,6.75-45.52-2-18.86-36.11-15.21-45-11.23,1.4,20.42-6.35,42.19-10.18,62.94l-10.21,1.31c-19.79,2.53-22.83,16.81-23.59,33.85l29.31-3.76c-2.31,14.52-5,29.66-7.43,44.52-8.06,24-30.14,87.05-48.08,89.35-4.75.61-6.72-2.49-7.3-7.86-2.43-22.5,16.58-68.6,13.35-98.52-2.14-19.79-14.64-28-29.75-26.07-22.73,2.92-40.92,25.33-54.49,52.43,1.59-9.31,2.37-16.35,1.72-21.82-2.32-19.07-24.68-19.82-45.76-16.6,0,24.57-3.21,47.41-7,69-8.78,27.26-27.12,69.43-40.82,71.19-3.33.42-5.64-2.9-6.27-8.78-2.43-22.41,14.59-82.28,22-107.89-5.47-7.76-14.69-13.22-25.06-11.89s-17.3,11.17-22.5,24.95c-5.28-16.13-18.49-24.93-33.75-23C737.9,157.15,711.86,220,712.3,268.94c-11.87,20.13-23.74,34.17-31.22,35.13-4.48.58-6.5-3.72-7.06-8.86-2.36-21.83,21.48-84.1,19.06-106.56-1.75-16.18-26-21-46.48-18.69-.06,6.43-.51,12.89-1.21,19.35-7.93,4.86-16.58,7.37-28.23,8.35,0-1-.06-2-.14-2.74-1.49-13.78-17.33-20.17-40.93-22.57-5.8,12.84-7.38,27,5.55,46.63-19.78,73.62-36.31,99.5-44.95,99.5-2.56,0-4.91-2.94-5.59-11.36-1.93-23.75,8.35-72.52,5.9-95.22s-23.25-23.66-46.51-20.74c.19,6.41,0,13.89-.44,22-8.5,5.17-17.78,7.63-30.63,8.39-5.62-17.49-25.32-28.33-47.95-25.43-16.71,2.14-31.72,11.31-43.91,24.72C360,211,349.42,209.62,337.47,213c-19.35,5.41-34.55,23.49-46.44,49,1.09-8.74,1.51-15.49.66-20.74-3.14-19.07-25.52-19.82-46.46-16.59,1.15,28.45-2,54.61-5.49,79.11-4,28.61-9,54.22-6.32,71.67,3.29,21.86,18.76,27.66,47.1,20.49-.15-25.17,1-46.83,3.69-62.78,1.48-10,6.93-30.82,9.28-37.51,2.79-7.94,9.72-19.47,9.72-19.47,7.13-12.45,15.47-21.5,22.79-23.54,5.33-1.5,13.23,1.74,17.36,10a134.24,134.24,0,0,0-7,57.85c4.13,38.19,26.41,61.33,56.11,57.53,20.24-2.59,43.77-18.09,55.77-43.17,12.89-26.95,14-54.72,12.2-66.93-1.18-7.89-3.44-14.19-6.41-19,.18-.18.32-.39.5-.57h.38a82.2,82.2,0,0,0,33.33-8.62c-2,26.18,2.56,57.88,6.71,76.28,6.1,27,21.36,47.4,33.26,45.5,12.81-2.05,45.53-19,65.45-65.42a320.13,320.13,0,0,0,20.85-71.81,81.77,81.77,0,0,0,26.52-7c-6.44,33.32-15.82,65.42-12.94,92.06,2.58,23.89,15.91,36.26,33.19,34.05h0C681.06,340.73,700,321.32,716,297c6,21.16,18.81,35.27,36.25,33,16.11-2.07,30-17.27,40.77-37.79,4,20.38,17.51,30.32,32.57,28.38,18.8-2.4,33.58-21.54,45.59-45.88a82.47,82.47,0,0,0,0,14.78c2.36,21.85,17.58,27.66,46.23,20.49.93-25.18,3-46.83,6.37-62.78,4.93-25.77,24.61-79.87,41.49-82,3.6-.46,5.86,1.79,6.41,6.87,1.71,15.81-15.59,64.48-12.07,97,2.51,23.24,16.34,32.45,32,30.44,25.83-3.31,46-33.84,61.24-67.36a119.21,119.21,0,0,0,.63,12.18c3.1,28.71,19.1,44.66,41,41.85,26.93-3.45,49.71-30.14,67.88-61.76,3.81-8.27-9.26-16.62-15.26-9.18-10.87,15.69-24.18,27.06-34.6,28.4-7.63,1-12.4-4.74-13.83-18-2.31-21.39,6.61-67,15-108.32Zm-734.63,157C421.15,295.37,408,337,392.53,339c-6.66.85-12-6.29-13.57-20.51-3.24-30,11.46-82.12,35-85.14,5-.64,9.34,1.7,12.43,5.47a34.49,34.49,0,0,0-14.52,11.78C415.48,255.52,417.52,261.84,418.33,269.27Zm375.78-27.58c-6.07,25.29-15.58,45.45-24.57,46.6-4.93.63-8.82-4.75-10.33-15.09-4-26.54,10.87-82.61,28.54-84.87,5.2-.67,8.77,3.61,10,11.72C799.16,209.09,798.42,223.4,794.11,241.69ZM700.24,114c4.61,10,0,24.1-10.24,32.41-5.94,4.83-11.87,6.75-20.39,6.07A21.18,21.18,0,0,1,655,143.78c-5.06-6.94-5.33-17-.5-27.16s12.1-15.59,20.2-17C686.64,97.63,695.14,103,700.24,114ZM235.67,175.37c-4-22.73-14.29-41-30.65-54.37-25-20.43-53.07-25.25-83.35-14.32C88.11,118.78,44.06,142.79,37,148c-17.23,12.34-18.08,25.15-3.16,50.42,8.43-5.31,30.35-17.33,40.09-22.56l1.78-1,0,2a30.65,30.65,0,0,1-.21,3.1c-8.19,67.53-16,134.27-23.29,196.33-.36,3-.88,16.45-.68,19,1.64,26,15.32,35.69,52.16,36.6-.34-22.36,1.87-53.64,7.25-102l.11-.84.31-.3a8.81,8.81,0,0,1,6.69-2.2c10.16,1.66,20.41-.19,31.35-5.6,34.56-17.12,59.75-43.63,77-81.06C236.38,218.24,239.42,197.11,235.67,175.37ZM179.2,219.29c-11.36,26.05-22.43,41.88-51.39,56.16a22.49,22.49,0,0,1-8.12,2,4.12,4.12,0,0,1-2.23-.49c-1.33-.61-1.31-2.93-.75-7.92q3.57-32,7.29-64,2.5-21.72,5-43.44c.35-3.09,1.31-6.85,5.67-8.63,10.36-4.23,18.71-5.74,27-4.92,13.91,1.39,21.62,10.1,24.28,27.42C187.65,188.54,184.93,206.14,179.2,219.29Zm760.33,119.5c-2.25.85-4.6,5.21-200.8,48.89C672.27,402.47,479.16,443.73,391.32,461c-63.2,12.39-67.71-22-11.68-34.54,103.4-23,353.28-62.87,559-91.33C944.74,334.25,940.42,338.46,939.53,338.79Z"/></svg>